<svg xmlns="http://www.w3.org/2000/svg" viewBox="0 0 512 512">
  <!-- Stylized Runner Silhouette - Optimized for Navbar (White) -->
  <path fill="#FFFFFF" d="M336.5 86.8c0 28.1-22.8 50.9-50.9 50.9s-50.9-22.8-50.9-50.9s22.8-50.9 50.9-50.9s50.9 22.8 50.9 50.9zM203.1 270.2c-15.6-11.2-19-33-7.8-48.6l37.2-52.1c11.2-15.7 29.8-24.3 48.9-22.5l56 5.4c17.1 1.6 32.5 11.2 41.6 26l35.2 57.3c9.3 15.2 4.4 34.9-10.8 44.2c-15.2 9.3-34.9 4.4-44.2-10.8l-26.6-43.2l-23.7-2.3l-55.3 77.4c-9.7 13.6-6.6 32.4 7 42.1l70.7 50.5c13.6 9.7 16.7 28.5 7 42.1c-9.7 13.6-28.5 16.7-42.1 7L194.2 380c-13.6-9.7-16.7-28.5-7-42.1l15.9-22.3v-.1l-10.7-5.5zM113 460.8c-13.2-10.1-15.7-28.8-5.6-42cs28.8-15.7 42-5.6l54.3 41.7l13-18.2c10.1-14.2 29.9-17.5 44.1-7.3c14.2 10.1 17.5 29.9 7.3 44.1l-34.7 48.6c-10.1 14.2-29.9 17.5-44.1 7.3c-1.7-1.2-3.3-2.5-4.7-4L113 460.8z"/>
</svg>
